<svg width="680" viewBox="0 0 680 340" xmlns="http://www.w3.org/2000/svg">
  <defs>
    <style>
      @import url('https://fonts.googleapis.com/css2?family=Syne:wght@700&amp;family=Space+Mono:wght@400&amp;display=swap');
      .wb { font-family: 'Syne', sans-serif; font-weight: 700; font-size: 48px; letter-spacing: -1.5px; fill: #1a1730; }
      .ws { font-family: 'Space Mono', monospace; font-weight: 400; font-size: 11px; letter-spacing: 4px; fill: #7F77DD; }
      @media (prefers-color-scheme: dark) {
        .wb { fill: #EEEDFE; }
        .ws { fill: #AFA9EC; }
      }
    </style>
    <clipPath id="brain">
      <path d="
        M 148,18
        C 120,18 90,26 72,42
        C 54,58 40,78 32,102
        C 22,130 20,158 28,184
        C 36,208 52,226 72,238
        C 64,246 60,258 62,272
        C 66,284 78,292 92,292
        L 96,286
        C 86,286 78,280 74,272
        C 70,262 74,252 82,244
        C 98,252 118,258 140,260
        C 164,262 186,258 206,248
        C 224,238 238,224 248,206
        C 258,186 262,164 260,142
        C 258,122 250,104 238,90
        C 228,78 216,70 204,66
        C 210,52 210,38 200,28
        C 188,18 168,14 148,18 Z
      "/>
    </clipPath>
  </defs>

  <g transform="translate(24,16)">

    <path d="
      M 148,18
      C 120,18 90,26 72,42
      C 54,58 40,78 32,102
      C 22,130 20,158 28,184
      C 36,208 52,226 72,238
      C 64,246 60,258 62,272
      C 66,284 78,292 92,292
      L 96,286
      C 86,286 78,280 74,272
      C 70,262 74,252 82,244
      C 98,252 118,258 140,260
      C 164,262 186,258 206,248
      C 224,238 238,224 248,206
      C 258,186 262,164 260,142
      C 258,122 250,104 238,90
      C 228,78 216,70 204,66
      C 210,52 210,38 200,28
      C 188,18 168,14 148,18 Z
    " fill="#110e24"/>

    <g clip-path="url(#brain)">

      <line x1="0" y1="40" x2="280" y2="40" stroke="#2a2454" stroke-width="0.5"/>
      <line x1="0" y1="60" x2="280" y2="60" stroke="#2a2454" stroke-width="0.5"/>
      <line x1="0" y1="80" x2="280" y2="80" stroke="#2a2454" stroke-width="0.5"/>
      <line x1="0" y1="100" x2="280" y2="100" stroke="#2a2454" stroke-width="0.5"/>
      <line x1="0" y1="120" x2="280" y2="120" stroke="#2a2454" stroke-width="0.5"/>
      <line x1="0" y1="140" x2="280" y2="140" stroke="#2a2454" stroke-width="0.5"/>
      <line x1="0" y1="160" x2="280" y2="160" stroke="#2a2454" stroke-width="0.5"/>
      <line x1="0" y1="180" x2="280" y2="180" stroke="#2a2454" stroke-width="0.5"/>
      <line x1="0" y1="200" x2="280" y2="200" stroke="#2a2454" stroke-width="0.5"/>
      <line x1="0" y1="220" x2="280" y2="220" stroke="#2a2454" stroke-width="0.5"/>
      <line x1="0" y1="240" x2="280" y2="240" stroke="#2a2454" stroke-width="0.5"/>
      <line x1="0" y1="260" x2="280" y2="260" stroke="#2a2454" stroke-width="0.5"/>

      <line x1="40" y1="0" x2="40" y2="300" stroke="#2a2454" stroke-width="0.5"/>
      <line x1="60" y1="0" x2="60" y2="300" stroke="#2a2454" stroke-width="0.5"/>
      <line x1="80" y1="0" x2="80" y2="300" stroke="#2a2454" stroke-width="0.5"/>
      <line x1="100" y1="0" x2="100" y2="300" stroke="#2a2454" stroke-width="0.5"/>
      <line x1="120" y1="0" x2="120" y2="300" stroke="#2a2454" stroke-width="0.5"/>
      <line x1="140" y1="0" x2="140" y2="300" stroke="#2a2454" stroke-width="0.5"/>
      <line x1="160" y1="0" x2="160" y2="300" stroke="#2a2454" stroke-width="0.5"/>
      <line x1="180" y1="0" x2="180" y2="300" stroke="#2a2454" stroke-width="0.5"/>
      <line x1="200" y1="0" x2="200" y2="300" stroke="#2a2454" stroke-width="0.5"/>
      <line x1="220" y1="0" x2="220" y2="300" stroke="#2a2454" stroke-width="0.5"/>
      <line x1="240" y1="0" x2="240" y2="300" stroke="#2a2454" stroke-width="0.5"/>

      <path d="M 60,240 L 60,200 L 80,200 L 80,160 L 60,160 L 60,120 L 80,120 L 80,80 L 100,80 L 100,60 L 120,60"
        fill="none" stroke="#7F77DD" stroke-width="2.5" stroke-linecap="round"/>

      <path d="M 120,60 L 140,60 L 140,40 L 160,40 L 160,60 L 180,60 L 180,80 L 200,80 L 200,100 L 220,100"
        fill="none" stroke="#9B8FE8" stroke-width="2.5" stroke-linecap="round"/>

      <path d="M 220,100 L 220,120 L 240,120 L 240,140 L 220,140 L 220,160 L 200,160 L 200,200 L 180,200"
        fill="none" stroke="#AFA9EC" stroke-width="2" stroke-linecap="round"/>

      <path d="M 80,200 L 100,200 L 100,220 L 120,220 L 120,240 L 100,240 L 100,260"
        fill="none" stroke="#534AB7" stroke-width="2" stroke-linecap="round"/>

      <path d="M 120,100 L 120,120 L 140,120 L 140,140 L 160,140 L 160,160 L 180,160 L 180,180"
        fill="none" stroke="#7F77DD" stroke-width="2" stroke-linecap="round"/>

      <path d="M 140,180 L 140,200 L 160,200 L 160,220 L 140,220 L 140,240"
        fill="none" stroke="#6B5FD4" stroke-width="1.5" stroke-linecap="round"/>

      <rect x="54" y="114" width="12" height="12" rx="2" fill="#7F77DD"/>
      <rect x="74" y="74" width="12" height="12" rx="2" fill="#7F77DD"/>
      <rect x="94" y="54" width="12" height="12" rx="2" fill="#9B8FE8"/>
      <rect x="114" y="54" width="12" height="12" rx="2" fill="#AFA9EC"/>
      <rect x="134" y="34" width="12" height="12" rx="2" fill="#CECBF6"/>
      <rect x="154" y="54" width="12" height="12" rx="2" fill="#9B8FE8"/>
      <rect x="174" y="74" width="12" height="12" rx="2" fill="#7F77DD"/>
      <rect x="194" y="94" width="12" height="12" rx="2" fill="#9B8FE8"/>
      <rect x="214" y="94" width="12" height="12" rx="2" fill="#AFA9EC"/>
      <rect x="234" y="114" width="12" height="12" rx="2" fill="#7F77DD"/>
      <rect x="214" y="134" width="12" height="12" rx="2" fill="#9B8FE8"/>
      <rect x="194" y="154" width="12" height="12" rx="2" fill="#7F77DD"/>
      <rect x="174" y="154" width="12" height="12" rx="2" fill="#534AB7"/>
      <rect x="174" y="194" width="12" height="12" rx="2" fill="#534AB7"/>
      <rect x="54" y="154" width="12" height="12" rx="2" fill="#9B8FE8"/>
      <rect x="54" y="194" width="12" height="12" rx="2" fill="#7F77DD"/>
      <rect x="74" y="194" width="12" height="12" rx="2" fill="#534AB7"/>
      <rect x="134" y="114" width="12" height="12" rx="2" fill="#534AB7"/>
      <rect x="114" y="94" width="12" height="12" rx="2" fill="#7F77DD"/>
      <rect x="134" y="134" width="12" height="12" rx="2" fill="#9B8FE8"/>
      <rect x="154" y="134" width="12" height="12" rx="2" fill="#7F77DD"/>
      <rect x="154" y="194" width="12" height="12" rx="2" fill="#6B5FD4"/>
      <rect x="134" y="174" width="12" height="12" rx="2" fill="#534AB7"/>
      <rect x="114" y="214" width="12" height="12" rx="2" fill="#7F77DD"/>
      <rect x="94" y="214" width="12" height="12" rx="2" fill="#534AB7"/>

      <rect x="74" y="114" width="12" height="12" rx="2" fill="#221e40" opacity="0.7"/>
      <rect x="74" y="154" width="12" height="12" rx="2" fill="#221e40" opacity="0.7"/>
      <rect x="94" y="134" width="12" height="12" rx="2" fill="#221e40" opacity="0.7"/>
      <rect x="94" y="174" width="12" height="12" rx="2" fill="#221e40" opacity="0.6"/>
      <rect x="114" y="154" width="12" height="12" rx="2" fill="#221e40" opacity="0.7"/>
      <rect x="114" y="174" width="12" height="12" rx="2" fill="#221e40" opacity="0.6"/>
      <rect x="134" y="154" width="12" height="12" rx="2" fill="#221e40" opacity="0.7"/>
      <rect x="154" y="174" width="12" height="12" rx="2" fill="#221e40" opacity="0.6"/>
      <rect x="174" y="114" width="12" height="12" rx="2" fill="#221e40" opacity="0.7"/>
      <rect x="174" y="134" width="12" height="12" rx="2" fill="#221e40" opacity="0.6"/>
      <rect x="194" y="134" width="12" height="12" rx="2" fill="#221e40" opacity="0.6"/>
      <rect x="194" y="174" width="12" height="12" rx="2" fill="#221e40" opacity="0.5"/>
      <rect x="214" y="154" width="12" height="12" rx="2" fill="#221e40" opacity="0.5"/>
      <rect x="214" y="174" width="12" height="12" rx="2" fill="#221e40" opacity="0.4"/>
      <rect x="74" y="54" width="12" height="12" rx="2" fill="#221e40" opacity="0.5"/>
      <rect x="134" y="54" width="12" height="12" rx="2" fill="#221e40" opacity="0.5"/>
      <rect x="54" y="74" width="12" height="12" rx="2" fill="#221e40" opacity="0.5"/>
      <rect x="134" y="214" width="12" height="12" rx="2" fill="#221e40" opacity="0.5"/>
      <rect x="74" y="234" width="12" height="12" rx="2" fill="#221e40" opacity="0.4"/>
      <rect x="154" y="214" width="12" height="12" rx="2" fill="#221e40" opacity="0.4"/>
      <rect x="234" y="134" width="12" height="12" rx="2" fill="#221e40" opacity="0.4"/>
      <rect x="54" y="234" width="12" height="12" rx="2" fill="#221e40" opacity="0.3"/>
      <rect x="194" y="54" width="12" height="12" rx="2" fill="#221e40" opacity="0.3"/>

      <circle cx="120" cy="60" r="3.5" fill="#EEEDFE"/>
      <circle cx="140" cy="40" r="3" fill="#EEEDFE"/>
      <circle cx="220" cy="100" r="3.5" fill="#EEEDFE"/>
      <circle cx="60" cy="120" r="3" fill="#EEEDFE"/>
      <circle cx="200" cy="160" r="2.5" fill="#EEEDFE"/>
      <circle cx="160" cy="140" r="2.5" fill="#EEEDFE"/>
      <circle cx="80" cy="200" r="2.5" fill="#EEEDFE"/>
      <circle cx="140" cy="180" r="2.5" fill="#EEEDFE"/>

    </g>

    <ellipse cx="90" cy="264" rx="14" ry="9" fill="#1e1a3c"/>
    <ellipse cx="78" cy="268" rx="10" ry="7" fill="#26215C"/>
    <rect x="92" y="268" width="8" height="12" rx="4" fill="#1e1a3c"/>

    <path d="
      M 148,18
      C 120,18 90,26 72,42
      C 54,58 40,78 32,102
      C 22,130 20,158 28,184
    " fill="none" stroke="#3C3489" stroke-width="1" opacity="0.6"/>
    <path d="
      M 200,28
      C 188,18 168,14 148,18
    " fill="none" stroke="#3C3489" stroke-width="1" opacity="0.6"/>
    <path d="
      M 238,90
      C 250,104 258,122 260,142
      C 262,164 258,186 248,206
    " fill="none" stroke="#3C3489" stroke-width="1" opacity="0.4"/>

  </g>

  <text x="332" y="148" class="wb">Brain</text>
  <text x="332" y="204" class="wb">Bootstrap</text>
  <rect x="332" y="216" width="6" height="44" rx="3" fill="#7F77DD"/>
  <text x="346" y="242" class="ws">config for LLMs</text>

</svg>
